<svg width="24" height="24" viewBox="0 0 24 24" fill="none" xmlns="http://www.w3.org/2000/svg">
<path d="M23.4358 10.6557L21.6114 8.83121C21.2993 8.51914 21.0472 7.90698 21.0472 7.47488V4.88223C21.0472 3.82597 20.183 2.96175 19.1268 2.96175H16.5461C16.114 2.96175 15.5019 2.70969 15.1898 2.39761L13.3653 0.573161C12.6211 -0.171024 11.3968 -0.171024 10.6526 0.573161L8.80419 2.39761C8.50411 2.70969 7.89196 2.96175 7.44785 2.96175H4.86721C3.81095 2.96175 2.94673 3.82597 2.94673 4.88223V7.46287C2.94673 7.89498 2.69467 8.50713 2.38259 8.81921L0.558139 10.6437C-0.186046 11.3878 -0.186046 12.6122 0.558139 13.3563L2.38259 15.1808C2.69467 15.4929 2.94673 16.105 2.94673 16.5371V19.1178C2.94673 20.174 3.81095 21.0382 4.86721 21.0382H7.44785C7.87996 21.0382 8.49211 21.2903 8.80419 21.6024L10.6286 23.4268C11.3728 24.171 12.5971 24.171 13.3413 23.4268L15.1658 21.6024C15.4778 21.2903 16.09 21.0382 16.5221 21.0382H19.1027C20.159 21.0382 21.0232 20.174 21.0232 19.1178V16.5371C21.0232 16.105 21.2753 15.4929 21.5874 15.1808L23.4118 13.3563C24.192 12.6242 24.192 11.3999 23.4358 10.6557ZM7.19579 8.41111C7.19579 7.75094 7.73592 7.21081 8.39609 7.21081C9.05625 7.21081 9.59638 7.75094 9.59638 8.41111C9.59638 9.07127 9.06825 9.61141 8.39609 9.61141C7.73592 9.61141 7.19579 9.07127 7.19579 8.41111ZM9.03224 16.2491C8.8522 16.4291 8.62414 16.5131 8.39609 16.5131C8.16803 16.5131 7.93997 16.4291 7.75993 16.2491C7.59251 16.0797 7.49862 15.8511 7.49862 15.6129C7.49862 15.3747 7.59251 15.1461 7.75993 14.9767L14.9617 7.77495C15.3098 7.42686 15.8859 7.42686 16.234 7.77495C16.5821 8.12304 16.5821 8.69918 16.234 9.04727L9.03224 16.2491ZM15.5979 16.8132C14.9257 16.8132 14.3856 16.2731 14.3856 15.6129C14.3856 14.9527 14.9257 14.4126 15.5859 14.4126C16.246 14.4126 16.7862 14.9527 16.7862 15.6129C16.7862 16.2731 16.258 16.8132 15.5979 16.8132Z" fill="#131313"/>
</svg>
