<svg class="fav"  viewBox="0 0 1024 1024" version="1.1" xmlns="http://www.w3.org/2000/svg"><path d="M71.69248 545.76c0-123.32 0-246.68 0.04-370.04248 0-53.32 34.89248-95.07 87.65752-102.7 17.40248-2.52752 35.53248-1.8 53.19248-0.60248 16.8 1.11504 29.01752 17.49 28.24752 34.59248-0.81504 17.53-14.57504 31.63248-31.89248 32.23248-11.22752 0.38752-22.46 0.04504-33.73 0.12752-21.69248 0.17248-35.88 14.40752-35.88 36.26248-0.04 246.72248-0.04 493.45 0 740.17 0 22.11504 14.27504 36.52 36.43504 36.52 224.00504 0 448.05248 0 671.97752 0 22.96504 0 36.86-14.22504 36.86-37.72 0-67.81 0-135.71 0-203.60504 0-177.40504 0-354.82 0-532.27752 0-9.29752-1.12-18.21752-7.03-25.84504-6.69-8.66-15.60504-13.24504-26.58-13.41752-11.23-0.25504-22.46 0-33.77504-0.12752-19.2-0.17-34.20504-14.79-34.46-33.39-0.25504-18.56 14.66-34.20504 33.77504-33.99 19.37 0.21248 39.17504-0.73 57.94504 3.12752 44.49504 9.26 76.13504 49.29248 77.67 94.72752 0.17504 2.57248 0.17504 5.14504 0.17504 7.71752 0 245.52 0 491.04504 0 736.57-0.08 44.49504-19.89 77.06-60.01 96.69504-13.2 6.52-27.43 9.18-42.17504 9.18-225.38 0-450.75248 0.07504-676.17504-0.09-57.39 0-102.18504-45.01-102.22752-102.61504C71.64752 793.38 71.69248 669.59504 71.69248 545.76zM512.15248 207.00752c-44.02 0-88.04 0.04504-132.01752 0-42.86504-0.04-71.24-28.41752-71.28248-71.28248-0.04-20.57248-0.08504-41.19 0-61.76504 0.17248-41.02248 28.93248-69.86752 69.78-69.90752 88.94504-0.04504 177.88752-0.04504 266.87248 0 40.37504 0.04 69.52504 29.18504 69.52504 69.47752 0.08 21.77504 0.17 43.55248 0 65.28248-0.17504 38.02-28.71504 67.59504-66.69 68.02504-45.44504 0.51248-90.79 0.13-136.18752 0.13L512.15248 207.00752zM647.13504 72.24752c-90.44 0-180.33248 0-270.12752 0 0 22.63 0 44.66248 0 66.69248 90.27 0 179.94248 0 270.12752 0C647.13504 116.69752 647.13504 94.79 647.13504 72.24752zM511.33752 613.61504c-66.22 0-132.44504-0.08504-198.67 0-9.64248 0.08504-18.60504-1.71504-26.01752-8.4-10.58752-9.52-14.14752-21.43504-10.24504-34.98 3.85752-13.54504 13.33248-21.6 27.34752-23.92 2.52752-0.42504 5.1-0.55504 7.67248-0.55504 133.60248-0.04 267.21-0.04 400.86 0 22.80504 0 37.89504 15.30504 36.52 36.73504-0.94504 14.66-12.51504 27.69-26.92 30.17504-4.11504 0.68504-8.39504 0.86-12.60504 0.86C643.27504 613.61504 577.35 613.61504 511.33752 613.61504zM511.42752 782.75504c-67.38 0-134.76504 0-202.14752 0-14.22752 0-24.86-6.43-30.94504-19.20504C272.42 751.12 273.79248 738.86 282.32 727.97c6.90248-8.91504 16.33248-12.85504 27.56248-12.85504C341.25752 715.2 372.59 715.2 403.96752 715.2c102.95504 0 205.95752-0.08504 308.82752 0 21.09 0 36.01 14.06 36.1 33.77504 0.08 18.6-14.49504 33.52504-33.18504 33.68504-25.53504 0.26-51 0.09504-76.46 0.09504C596.56 782.75504 554.03504 782.75504 511.42752 782.75504zM444.47248 376.53248c44.92 0 89.84752-0.12752 134.76248 0.04504 22.80504 0.12752 38.32504 20.01752 33.26 41.83248-3.59504 15.17504-16.97504 25.63248-33.43 25.71752-29.96 0.13248-59.92504 0.04504-89.88752 0.04504-59.88 0-119.80248 0.12752-179.68248-0.04504-24.51504-0.08504-40.80752-23.19-32.53248-45.60504 5.01504-13.50248 17.27504-21.94504 32.74752-21.94504C354.63248 376.49248 399.55248 376.53248 444.47248 376.53248z"  /></svg>