<svg width="18" height="18" viewBox="0 0 18 18" fill="none" xmlns="http://www.w3.org/2000/svg">
<path d="M15.7307 3.07199C15.3297 2.66957 14.8531 2.35027 14.3284 2.1324C13.8038 1.91453 13.2412 1.80238 12.6731 1.80238C12.105 1.80238 11.5424 1.91453 11.0177 2.1324C10.4931 2.35027 10.0165 2.66957 9.61551 3.07199L9 3.69549L8.38449 3.07199C7.98346 2.66957 7.50694 2.35027 6.98225 2.1324C6.45756 1.91453 5.89503 1.80238 5.3269 1.80238C4.75878 1.80238 4.19624 1.91453 3.67155 2.1324C3.14686 2.35027 2.67034 2.66957 2.26932 3.07199C0.574655 4.76665 0.470737 7.62839 2.60505 9.80267L9 16.1976L15.3949 9.80267C17.5293 7.62839 17.4253 4.76665 15.7307 3.07199Z" fill="black" stroke="black" stroke-width="2" stroke-linecap="round" stroke-linejoin="round"/>
</svg>
