<svg width="18" height="16" viewBox="0 0 18 16" fill="none" xmlns="http://www.w3.org/2000/svg">
<path d="M15.7307 2.07199C15.3297 1.66957 14.8531 1.35027 14.3284 1.1324C13.8038 0.914533 13.2412 0.802383 12.6731 0.802383C12.105 0.802383 11.5424 0.914533 11.0177 1.1324C10.4931 1.35027 10.0165 1.66957 9.61551 2.07199L9 2.69549L8.38449 2.07199C7.98346 1.66957 7.50694 1.35027 6.98225 1.1324C6.45756 0.914533 5.89503 0.802383 5.3269 0.802383C4.75878 0.802383 4.19624 0.914533 3.67155 1.1324C3.14686 1.35027 2.67034 1.66957 2.26932 2.07199C0.574655 3.76665 0.470737 6.62839 2.60505 8.80267L9 15.1976L15.3949 8.80267C17.5293 6.62839 17.4253 3.76665 15.7307 2.07199Z" stroke="black" stroke-width="1.5" stroke-linecap="round" stroke-linejoin="round"/>
</svg>
